<svg id="Calque_1" data-name="Calque 1" xmlns="http://www.w3.org/2000/svg" viewBox="0 0 1815.05 403.2"><defs><style>.cls-1{fill:#258ffb;}</style></defs><title>logo-blue</title><path class="cls-1" d="M456.29,324.81a58.5,58.5,0,1,0-17.89,17.66L482,385.56a12.57,12.57,0,1,0,17.67-17.88ZM374,293a33.31,33.31,0,1,1,33.31,33.32A33.34,33.34,0,0,1,374,293Zm85.48-162.14h-54.1v-6.94A50.35,50.35,0,0,0,355,73.65H342.56a50.34,50.34,0,0,0-50.28,50.29v6.94h-54.1a50.34,50.34,0,0,0-50.29,50.28v164a50.35,50.35,0,0,0,50.29,50.29H428a12.58,12.58,0,0,0,0-25.15H307.32V294.91a12.57,12.57,0,1,0-25.14,0v75.42h-44A25.17,25.17,0,0,1,213,345.19v-132h69.15v31.43a12.57,12.57,0,0,0,25.14,0V213.19H484.57V313.76a12.57,12.57,0,1,0,25.14,0V181.16A50.34,50.34,0,0,0,459.43,130.88Zm-142-6.94A25.17,25.17,0,0,1,342.56,98.8H355a25.17,25.17,0,0,1,25.14,25.14v6.94H317.42ZM213,188.05v-6.89A25.17,25.17,0,0,1,238.18,156H459.43a25.17,25.17,0,0,1,25.14,25.14v6.89Z" transform="translate(-187.89 -42.6)"/><path class="cls-1" d="M682.56,356.6q-30,0-53-14.2a99.68,99.68,0,0,1-36.2-39.2q-13.2-25-13.2-57.4,0-32.79,14.2-57.8a103,103,0,0,1,39-39.2q24.79-14.19,57.2-14.2,32,0,56.8,14.2a103,103,0,0,1,39,39.2q14.21,25,14.2,57.8H777q0,32.4-12.2,57.4t-33.4,39.2Q710.15,356.61,682.56,356.6Zm7.2,89.2a127.85,127.85,0,0,1-53.2-11.2,111.83,111.83,0,0,1-42-32.8q-5.2-6.81-3.8-14a17.78,17.78,0,0,1,7.8-11.6,19.2,19.2,0,0,1,15-3.2,20.34,20.34,0,0,1,12.6,8,73.8,73.8,0,0,0,27.2,21.2q16.39,7.59,37.2,7.6a70.49,70.49,0,0,0,35.4-9.2q16.2-9.21,25.8-27.2t9.6-44V272.6l13.2-35.2,26,8.4v86.4q0,31.6-14,57.4a106.86,106.86,0,0,1-39,41Q722.56,445.8,689.76,445.8Zm.8-125.2q20.79,0,36.8-9.6a67.18,67.18,0,0,0,25-26.4q9-16.8,9-38.8t-9-39a66.86,66.86,0,0,0-25-26.6q-16-9.6-36.8-9.6t-36.8,9.6a68.18,68.18,0,0,0-25.2,26.6q-9.21,17-9.2,39t9.2,38.8a68.52,68.52,0,0,0,25.2,26.4Q669.75,320.6,690.56,320.6Z" transform="translate(-187.89 -42.6)"/><path class="cls-1" d="M960.56,356.6q-32.4,0-57.2-14.2a102.76,102.76,0,0,1-39-39.2q-14.21-25-14.2-57.4,0-32.79,14.2-57.8a102.9,102.9,0,0,1,39-39.2q24.79-14.19,57.2-14.2,32,0,56.8,14.2a103,103,0,0,1,39,39.2q14.19,25,14.2,57.8,0,32.4-14,57.4a101.5,101.5,0,0,1-38.8,39.2Q993,356.61,960.56,356.6Zm0-36q20.79,0,36.8-9.6a67.18,67.18,0,0,0,25-26.4q9-16.8,9-38.8t-9-39a66.86,66.86,0,0,0-25-26.6q-16-9.6-36.8-9.6t-36.8,9.6a68.18,68.18,0,0,0-25.2,26.6q-9.21,17-9.2,39t9.2,38.8a68.52,68.52,0,0,0,25.2,26.4Q939.75,320.6,960.56,320.6Z" transform="translate(-187.89 -42.6)"/><path class="cls-1" d="M1230.55,356.6q-31.2,0-56.2-14.6a107.92,107.92,0,0,1-39.6-39.8q-14.61-25.2-14.6-56.8t13.4-56.6a103.8,103.8,0,0,1,36.6-39.6q23.2-14.59,52.4-14.6a98.41,98.41,0,0,1,77.2,36.4V63q0-9.2,5.8-14.8a20.19,20.19,0,0,1,14.6-5.6q9.19,0,14.8,5.6t5.6,14.8V245.4q0,31.61-14.6,56.8a108.52,108.52,0,0,1-39.4,39.8Q1261.74,356.61,1230.55,356.6Zm0-36q20.4,0,36.4-9.8a69.29,69.29,0,0,0,25.2-27q9.19-17.19,9.2-38.4,0-21.6-9.2-38.4a70.14,70.14,0,0,0-25.2-26.6q-16-9.79-36.4-9.8a68.59,68.59,0,0,0-36.2,9.8,71.08,71.08,0,0,0-25.6,26.6q-9.4,16.8-9.4,38.4,0,21.21,9.4,38.4a70.19,70.19,0,0,0,25.6,27A68.49,68.49,0,0,0,1230.55,320.6Z" transform="translate(-187.89 -42.6)"/><path class="cls-1" d="M1515.35,356.6q-33.21,0-59-14.2a103.74,103.74,0,0,1-40.4-39.2q-14.61-25-14.6-57.4,0-32.79,13.8-57.8a101,101,0,0,1,38.2-39.2q24.39-14.19,56-14.2,31.2,0,53.6,13.8a90,90,0,0,1,34.2,38q11.79,24.21,11.8,55.8a16.76,16.76,0,0,1-5.2,12.6,18.25,18.25,0,0,1-13.2,5h-161.2v-32h160L1573,239q-.4-20-8-35.8a60.85,60.85,0,0,0-21.6-25q-14-9.19-34-9.2-22.8,0-39,10a64.44,64.44,0,0,0-24.6,27.4q-8.4,17.4-8.4,39.4t10,39.2a72.9,72.9,0,0,0,27.6,27.2q17.6,10,40.4,10a75.84,75.84,0,0,0,25.4-4.6q13-4.59,21-10.6a22.74,22.74,0,0,1,13-4.6,17.53,17.53,0,0,1,12.2,4.2q6.79,6,7.2,13.2t-6.4,12.4q-13.61,10.8-33.8,17.6A120.8,120.8,0,0,1,1515.35,356.6Z" transform="translate(-187.89 -42.6)"/><path class="cls-1" d="M1744.15,356.6q-29.2,0-52.4-14.6a103.66,103.66,0,0,1-36.6-39.6q-13.41-25-13.4-56.6t14.6-56.8a108,108,0,0,1,39.6-39.8q25-14.59,56.2-14.6t56,14.6a108.6,108.6,0,0,1,39.4,39.8q14.6,25.2,14.6,56.8h-15.6q0,31.6-13.4,56.6a103.81,103.81,0,0,1-36.6,39.6Q1773.34,356.61,1744.15,356.6Zm8-36q20.4,0,36.4-9.8a69.7,69.7,0,0,0,25.2-26.8q9.2-17,9.2-38.2,0-21.6-9.2-38.6a69.84,69.84,0,0,0-25.2-26.8q-16-9.79-36.4-9.8a68.59,68.59,0,0,0-36.2,9.8,70.7,70.7,0,0,0-25.6,26.8q-9.4,17-9.4,38.6,0,21.21,9.4,38.2a70.55,70.55,0,0,0,25.6,26.8A68.49,68.49,0,0,0,1752.15,320.6Zm89.6,34.8a19.83,19.83,0,0,1-20.4-20.4V273.8l7.6-42.4,33.2,14.4V335a19.83,19.83,0,0,1-20.4,20.4Z" transform="translate(-187.89 -42.6)"/><path class="cls-1" d="M1974.94,355a52.74,52.74,0,0,1-31.2-9.6q-13.6-9.6-21.2-26.2t-7.6-38.2V62.6q0-8.79,5.6-14.4t14.4-5.6q8.79,0,14.4,5.6t5.6,14.4V281q0,14.81,5.6,24.4t14.4,9.6h10a16.64,16.64,0,0,1,13,5.6q5,5.61,5,14.4t-7.6,14.4q-7.6,5.61-19.6,5.6Z" transform="translate(-187.89 -42.6)"/></svg>