<svg id="Calque_1" data-name="Calque 1" xmlns="http://www.w3.org/2000/svg" viewBox="0 0 1856.38 395.78"><defs><style>.cls-1,.cls-2{fill:#fff;}.cls-2{font-size:300px;font-family:Roboto-Medium, Roboto;font-weight:500;}.cls-3{letter-spacing:-0.01em;}.cls-4{letter-spacing:-0.01em;}</style></defs><path class="cls-1" d="M319.71,336.22a69.7,69.7,0,1,0-21.32,21l52,51.33A15,15,0,1,0,373,388.79a15.32,15.32,0,0,0-1.57-1.55ZM221.63,298.4a39.68,39.68,0,1,1,39.68,39.68h0A39.71,39.71,0,0,1,221.63,298.4ZM323.45,105.21H259V97a60,60,0,0,0-59.9-59.9H184.24A60,60,0,0,0,124.34,97v8.26H59.9A60,60,0,0,0,0,165.11V360.5a60,60,0,0,0,59.9,59.9H286a15,15,0,0,0,0-29.95H142.26V300.6a15,15,0,0,0-29.95,0v89.85H59.9a30,30,0,0,1-30-29.95V203.27h82.36v37.44a15,15,0,0,0,30,0V203.27H353.39v119.8a15,15,0,0,0,29.95,0v-158A60,60,0,0,0,323.45,105.21ZM154.29,97a30,30,0,0,1,30-30h14.86A30,30,0,0,1,229.1,97v8.26H154.29ZM30,173.32v-8.21a30,30,0,0,1,30-30h263.5a30,30,0,0,1,29.94,30v8.21Z" transform="translate(0 -37.05)"/><text class="cls-2" transform="translate(441.48 314.48)"><tspan class="cls-3">F</tspan><tspan class="cls-4" x="160.99" y="0">r</tspan><tspan x="263.67" y="0">eelancer</tspan></text></svg>